<svg width="138" height="48" viewBox="0 0 138 48" fill="none" xmlns="http://www.w3.org/2000/svg">
<path d="M54.3696 26.506C54.3696 26.3175 54.2948 26.1368 54.1616 26.0034C54.0284 25.87 53.8477 25.7949 53.6591 25.7944H48.4851C48.2965 25.7949 48.1157 25.87 47.9825 26.0034C47.8493 26.1368 47.7745 26.3175 47.7745 26.506V36.0847C47.7745 36.273 47.8494 36.4536 47.9826 36.5867C48.1159 36.7198 48.2966 36.7946 48.4851 36.7946H53.6591C53.8475 36.7946 54.0282 36.7198 54.1615 36.5867C54.2947 36.4536 54.3696 36.273 54.3696 36.0847C54.3696 35.8965 54.2947 35.7159 54.1615 35.5828C54.0282 35.4496 53.8475 35.3748 53.6591 35.3748H49.1956V27.224H53.6591C53.753 27.2238 53.846 27.205 53.9326 27.1688C54.0193 27.1325 54.0979 27.0795 54.1639 27.0127C54.2299 26.946 54.2821 26.8669 54.3174 26.7799C54.3527 26.6929 54.3704 26.5998 54.3696 26.506Z" fill="black"/>
<path d="M29.1008 26.195C28.8629 25.7065 28.0595 25.7065 27.8216 26.195L23.1756 35.7753C23.1347 35.8589 23.1106 35.9498 23.1049 36.0427C23.0991 36.1355 23.1117 36.2286 23.142 36.3166C23.1723 36.4046 23.2196 36.4858 23.2813 36.5555C23.343 36.6253 23.4178 36.6821 23.5015 36.723C23.5978 36.7702 23.7038 36.7947 23.8111 36.7946C23.9448 36.7948 24.0757 36.7573 24.189 36.6864C24.3023 36.6156 24.3933 36.5142 24.4515 36.3941L28.4588 28.1341L31.3921 34.1862L28.8368 32.5971C28.7577 32.5434 28.6684 32.5064 28.5745 32.488C28.4807 32.4697 28.384 32.4705 28.2905 32.4903C28.1969 32.5102 28.1083 32.5488 28.03 32.6037C27.9517 32.6586 27.8853 32.7288 27.8348 32.8099C27.7843 32.8911 27.7507 32.9817 27.7361 33.0761C27.7214 33.1706 27.726 33.267 27.7496 33.3596C27.7732 33.4523 27.8152 33.5392 27.8733 33.6152C27.9313 33.6912 28.004 33.7547 28.0872 33.802L32.7349 36.6855C32.8656 36.7662 33.019 36.8023 33.172 36.7886C33.325 36.7748 33.4695 36.7118 33.5837 36.6091C33.6978 36.5064 33.7756 36.3695 33.8054 36.2188C33.8351 36.0682 33.8151 35.912 33.7485 35.7737L29.1008 26.195Z" fill="black"/>
<path d="M41.8311 26.195C41.5932 25.7065 40.7898 25.7065 40.5518 26.195L35.9042 35.7753C35.8221 35.9448 35.8107 36.14 35.8726 36.3178C35.9345 36.4957 36.0645 36.6417 36.2342 36.7238C36.4038 36.8058 36.5991 36.8172 36.7772 36.7554C36.9552 36.6935 37.1013 36.5635 37.1834 36.3941L41.1907 28.1341L45.1995 36.3941C45.2816 36.5635 45.4278 36.6935 45.6058 36.7554C45.7838 36.8172 45.9791 36.8058 46.1488 36.7238C46.3184 36.6417 46.4485 36.4957 46.5104 36.3178C46.5722 36.14 46.5609 35.9448 46.4788 35.7753L41.8311 26.195Z" fill="black"/>
<path d="M18.1382 30.585H15.1641C15.0781 30.5853 14.993 30.6018 14.9132 30.6338V26.5063C14.9132 26.318 14.8383 26.1374 14.705 26.0043C14.5718 25.8712 14.3911 25.7964 14.2026 25.7964C14.0142 25.7964 13.8335 25.8712 13.7002 26.0043C13.567 26.1374 13.4921 26.318 13.4921 26.5063V36.0851C13.4921 36.2733 13.567 36.4539 13.7002 36.587C13.8335 36.7201 14.0142 36.795 14.2026 36.795C14.3911 36.795 14.5718 36.7201 14.705 36.587C14.8383 36.4539 14.9132 36.2733 14.9132 36.0851V31.9575C14.9933 31.9882 15.0783 32.0042 15.1641 32.0048H18.1382C18.3266 32.0048 18.5073 31.93 18.6406 31.7968C18.7738 31.6637 18.8487 31.4831 18.8487 31.2949C18.8487 31.1066 18.7738 30.926 18.6406 30.7929C18.5073 30.6597 18.3266 30.585 18.1382 30.585Z" fill="black"/>
<path d="M20.523 25.7944C20.3344 25.7949 20.1537 25.87 20.0205 26.0034C19.8873 26.1368 19.8125 26.3175 19.8125 26.506V36.0847C19.8125 36.273 19.8874 36.4536 20.0206 36.5867C20.1538 36.7198 20.3346 36.7946 20.523 36.7946C20.7115 36.7946 20.8922 36.7198 21.0254 36.5867C21.1587 36.4536 21.2335 36.273 21.2335 36.0847V26.506C21.2335 26.3175 21.1587 26.1368 21.0255 26.0034C20.8923 25.87 20.7116 25.7949 20.523 25.7944Z" fill="black"/>
<path d="M6.45728 26.195C6.21936 25.7065 5.41596 25.7065 5.17804 26.195L0.532007 35.7753C0.491098 35.8589 0.467077 35.9498 0.461318 36.0427C0.455558 36.1355 0.468173 36.2286 0.498441 36.3166C0.528709 36.4046 0.576036 36.4858 0.637719 36.5555C0.699402 36.6253 0.774231 36.6821 0.85793 36.723C0.954285 36.7702 1.06022 36.7947 1.16756 36.7946C1.30125 36.795 1.43232 36.7576 1.54564 36.6867C1.65896 36.6158 1.74991 36.5144 1.80799 36.3941L5.81522 28.1341L8.74852 34.1862L6.19329 32.5971C6.1141 32.5434 6.02488 32.5064 5.93099 32.488C5.8371 32.4697 5.74047 32.4705 5.6469 32.4903C5.55333 32.5102 5.46473 32.5488 5.38643 32.6037C5.30814 32.6586 5.24174 32.7288 5.19124 32.8099C5.14073 32.8911 5.10715 32.9817 5.09252 33.0761C5.07788 33.1706 5.08249 33.267 5.10606 33.3596C5.12963 33.4523 5.17168 33.5392 5.2297 33.6152C5.28771 33.6912 5.36049 33.7547 5.44366 33.802L10.0913 36.6855C10.2219 36.7675 10.3757 36.8048 10.5294 36.7916C10.6831 36.7783 10.8283 36.7154 10.943 36.6123C11.0576 36.5091 11.1354 36.3715 11.1647 36.2201C11.1939 36.0688 11.1729 35.9121 11.1049 35.7737L6.45728 26.195Z" fill="black"/>
<path d="M83.3523 26.195C83.1144 25.7065 82.311 25.7065 82.0731 26.195L81.0627 28.2791C81.022 28.363 80.9981 28.4541 80.9926 28.5472C80.9871 28.6404 81 28.7337 81.0306 28.8218C81.0611 28.9099 81.1088 28.9912 81.1708 29.061C81.2328 29.1307 81.3079 29.1876 81.3919 29.2283C81.4759 29.2691 81.5671 29.2928 81.6603 29.2984C81.7535 29.3039 81.8469 29.291 81.9351 29.2605C82.0233 29.2299 82.1047 29.1823 82.1745 29.1204C82.2443 29.0584 82.3012 28.9833 82.342 28.8994L82.7135 28.1341L86.7207 36.3941C86.7788 36.5144 86.8698 36.6158 86.9831 36.6867C87.0964 36.7576 87.2275 36.795 87.3612 36.7946C87.4685 36.7947 87.5744 36.7702 87.6708 36.723C87.7545 36.6821 87.8293 36.6253 87.891 36.5555C87.9527 36.4858 88 36.4046 88.0303 36.3166C88.0606 36.2286 88.0732 36.1355 88.0674 36.0427C88.0617 35.9498 88.0376 35.8589 87.9967 35.7753L83.3523 26.195Z" fill="black"/>
<path d="M50.9867 30.585C50.7983 30.585 50.6176 30.6597 50.4843 30.7929C50.3511 30.926 50.2762 31.1066 50.2762 31.2949C50.2762 31.4831 50.3511 31.6637 50.4843 31.7968C50.6176 31.93 50.7983 32.0048 50.9867 32.0048H52.1275C52.3159 32.0048 52.4966 31.93 52.6299 31.7968C52.7631 31.6637 52.838 31.4831 52.838 31.2949C52.838 31.1066 52.7631 30.926 52.6299 30.7929C52.4966 30.6597 52.3159 30.585 52.1275 30.585H50.9867Z" fill="black"/>
<path d="M100.466 35.7753L95.8186 26.195C95.5807 25.7065 94.7773 25.7065 94.541 26.195L89.8933 35.7753C89.8524 35.8589 89.8284 35.9498 89.8226 36.0427C89.8169 36.1355 89.8295 36.2286 89.8598 36.3166C89.89 36.4046 89.9374 36.4858 89.999 36.5555C90.0607 36.6253 90.1356 36.6821 90.2193 36.723C90.3156 36.7702 90.4216 36.7947 90.5289 36.7946C90.6625 36.7948 90.7935 36.7573 90.9068 36.6864C91.0201 36.6156 91.1111 36.5142 91.1693 36.3941L95.1765 28.1341L98.1098 34.1862L95.5546 32.5971C95.4754 32.5434 95.3862 32.5064 95.2923 32.488C95.1984 32.4697 95.1018 32.4705 95.0082 32.4903C94.9147 32.5102 94.8261 32.5488 94.7478 32.6037C94.6695 32.6586 94.6031 32.7288 94.5526 32.8099C94.5021 32.8911 94.4685 32.9817 94.4538 33.0761C94.4392 33.1706 94.4438 33.267 94.4674 33.3596C94.491 33.4523 94.533 33.5392 94.591 33.6152C94.649 33.6912 94.7218 33.7547 94.805 33.802L99.4527 36.6855C99.5833 36.7675 99.7371 36.8048 99.8908 36.7916C100.044 36.7783 100.19 36.7154 100.304 36.6123C100.419 36.5091 100.497 36.3715 100.526 36.2201C100.555 36.0688 100.534 35.9121 100.466 35.7737V35.7753Z" fill="black"/>
<path d="M78.7061 26.195C78.4682 25.7065 77.6648 25.7065 77.4269 26.195L72.7792 35.7753C72.6971 35.9448 72.6857 36.14 72.7476 36.3178C72.8095 36.4957 72.9396 36.6417 73.1092 36.7238C73.2789 36.8058 73.4742 36.8172 73.6522 36.7554C73.8302 36.6935 73.9764 36.5635 74.0585 36.3941L78.0657 28.1341L82.0729 36.3941C82.1312 36.5142 82.2221 36.6156 82.3354 36.6864C82.4487 36.7573 82.5797 36.7948 82.7134 36.7946C82.8207 36.7947 82.9266 36.7702 83.023 36.723C83.1067 36.6821 83.1815 36.6253 83.2432 36.5555C83.3049 36.4858 83.3522 36.4046 83.3825 36.3166C83.4127 36.2286 83.4254 36.1355 83.4196 36.0427C83.4138 35.9498 83.3898 35.8589 83.3489 35.7753L78.7061 26.195Z" fill="black"/>
<path d="M61.5926 26.195C61.3547 25.7065 60.5513 25.7065 60.3134 26.195L55.6657 35.7753C55.5836 35.9448 55.5722 36.14 55.6341 36.3178C55.696 36.4957 55.8261 36.6417 55.9957 36.7238C56.1654 36.8058 56.3607 36.8172 56.5387 36.7554C56.7167 36.6935 56.8629 36.5635 56.945 36.3941L60.9522 28.1341L64.9594 36.3941C65.0177 36.5142 65.1086 36.6156 65.2219 36.6864C65.3352 36.7573 65.4662 36.7948 65.5999 36.7946C65.7072 36.7947 65.8131 36.7702 65.9095 36.723C65.9932 36.6821 66.068 36.6253 66.1297 36.5555C66.1914 36.4858 66.2387 36.4046 66.269 36.3166C66.2992 36.2286 66.3119 36.1355 66.3061 36.0427C66.3003 35.9498 66.2763 35.8589 66.2354 35.7753L61.5926 26.195Z" fill="black"/>
<path d="M66.2378 26.195C65.9998 25.7065 65.1964 25.7065 64.9585 26.195L63.8096 28.5656C63.7273 28.7351 63.7157 28.9303 63.7775 29.1084C63.8392 29.2864 63.9692 29.4326 64.1388 29.5149C64.3085 29.5971 64.5039 29.6087 64.682 29.547C64.8602 29.4853 65.0066 29.3555 65.0889 29.186L65.599 28.1341L69.6062 36.3941C69.6644 36.5142 69.7554 36.6156 69.8687 36.6864C69.982 36.7573 70.113 36.7948 70.2466 36.7946C70.354 36.7947 70.4599 36.7702 70.5562 36.723C70.6399 36.6821 70.7148 36.6253 70.7765 36.5555C70.8381 36.4858 70.8855 36.4046 70.9157 36.3166C70.946 36.2286 70.9586 36.1355 70.9529 36.0427C70.9471 35.9498 70.9231 35.8589 70.8822 35.7753L66.2378 26.195Z" fill="black"/>
<path d="M20.1064 43.2736V42.8861H22.2787V43.2736H21.3938V46.8557H20.993V43.2736H20.1064ZM33.8881 42.8861H34.6817C34.9882 42.875 35.295 42.8946 35.5976 42.9447C35.8152 42.9958 36.0103 43.1164 36.1533 43.2883C36.2918 43.4772 36.3664 43.7053 36.3664 43.9396C36.3664 44.1738 36.2918 44.4019 36.1533 44.5908C36.0052 44.7685 35.8013 44.8907 35.5747 44.9376C35.2415 44.993 34.9036 45.0148 34.566 45.0028H34.2841V46.8443H33.8865L33.8881 42.8861ZM34.2857 43.2736V44.6185H34.9555C35.1571 44.6291 35.3589 44.6043 35.5519 44.5452C35.674 44.4994 35.778 44.4155 35.8485 44.3059C35.9202 44.196 35.9576 44.0674 35.9561 43.9363C35.957 43.8073 35.9196 43.6809 35.8485 43.5732C35.7808 43.4664 35.6809 43.3838 35.5633 43.3371C35.3764 43.2814 35.1813 43.2577 34.9865 43.2671L34.2857 43.2736ZM48.2026 42.8861H50.4743V43.2736H48.5986V44.5159H50.458V44.9034H48.5986V46.46H50.458V46.8475H48.2075L48.2026 42.8861ZM65.3136 46.8475H64.9013V43.8093L62.2939 46.8475H62.2043V42.8861H62.6003V45.9797L65.2321 42.8861H65.3185L65.3136 46.8475ZM62.8023 41.9385H63.1576C63.2171 42.0302 63.302 42.1026 63.402 42.1469C63.5177 42.1969 63.6427 42.2213 63.7687 42.2185C63.888 42.223 64.0069 42.2019 64.1174 42.1567C64.2171 42.1047 64.3031 42.0299 64.3684 41.9385H64.7139C64.6678 42.1071 64.5595 42.252 64.4108 42.3439C64.2168 42.4601 63.993 42.5167 63.7671 42.5067C63.5386 42.5168 63.3121 42.4602 63.1152 42.3439C62.9645 42.253 62.8543 42.108 62.8072 41.9385H62.8023ZM77.3059 47.4402H76.9148V46.4779H77.2407L78.797 42.8861H78.9339L80.5782 46.4779H80.8862V47.4402H80.4967V46.8475H77.314L77.3059 47.4402ZM77.684 46.4779H80.1056L78.8638 43.71L77.684 46.4779Z" fill="black"/>
<path d="M130.677 47.9996C130.495 47.9894 130.316 47.9434 130.152 47.8641C129.988 47.7849 129.841 47.6739 129.72 47.5378C129.599 47.4016 129.506 47.2428 129.446 47.0706C129.387 46.8983 129.362 46.716 129.373 46.5342C129.383 46.3522 129.429 46.174 129.508 46.0098C129.587 45.8456 129.698 45.6987 129.835 45.5776C129.971 45.4566 130.13 45.3636 130.303 45.3042C130.475 45.2448 130.658 45.2202 130.84 45.2316C131.022 45.2418 131.2 45.2878 131.364 45.3671C131.528 45.4463 131.675 45.5572 131.796 45.6934C131.918 45.8296 132.011 45.9884 132.07 46.1606C132.13 46.3328 132.155 46.5151 132.143 46.697C132.123 47.0492 131.968 47.3802 131.711 47.6223C131.454 47.8644 131.114 47.9993 130.761 47.9996H130.677ZM126.164 46.4365C126.007 46.3441 125.87 46.2217 125.761 46.0764C125.651 45.931 125.572 45.7655 125.526 45.5893C125.481 45.4132 125.471 45.2298 125.496 45.0496C125.522 44.8695 125.583 44.6962 125.675 44.5396C125.864 44.2247 126.17 43.9973 126.526 43.9073C126.882 43.8172 127.26 43.8719 127.575 44.0593C127.732 44.1517 127.869 44.274 127.979 44.4194C128.088 44.5648 128.168 44.7303 128.214 44.9065C128.259 45.0826 128.269 45.266 128.244 45.4461C128.218 45.6263 128.157 45.7996 128.064 45.9562C127.942 46.1625 127.767 46.3334 127.558 46.4519C127.35 46.5704 127.113 46.6324 126.873 46.6319C126.623 46.6328 126.378 46.5652 126.164 46.4365ZM122.625 43.7776C122.351 43.5327 122.186 43.1893 122.166 42.8229C122.146 42.4566 122.272 42.0972 122.517 41.8238C122.762 41.5503 123.106 41.3851 123.472 41.3647C123.839 41.3442 124.199 41.4701 124.473 41.7147C124.746 41.9596 124.911 42.303 124.931 42.6694C124.952 43.0358 124.825 43.3951 124.58 43.6685C124.451 43.814 124.292 43.9304 124.114 44.0101C123.936 44.0898 123.744 44.131 123.549 44.1309C123.208 44.1308 122.879 44.005 122.625 43.7776ZM119.576 40.7378C119.453 40.6037 119.358 40.4467 119.296 40.2758C119.234 40.1049 119.206 39.9234 119.215 39.7419C119.223 39.5603 119.267 39.3822 119.345 39.2178C119.423 39.0534 119.532 38.9059 119.667 38.7839C119.801 38.6615 119.958 38.5668 120.13 38.5051C120.301 38.4434 120.482 38.4161 120.664 38.4245C120.845 38.433 121.023 38.4771 121.188 38.5545C121.352 38.6318 121.5 38.7407 121.622 38.8751C121.869 39.1464 121.999 39.5045 121.982 39.8709C121.964 40.2372 121.802 40.5818 121.531 40.8289C121.277 41.0608 120.945 41.1891 120.601 41.1888C120.408 41.1899 120.217 41.1504 120.04 41.0727C119.863 40.9949 119.705 40.8808 119.576 40.7378ZM116.818 37.4813C116.705 37.3391 116.621 37.1759 116.571 37.0012C116.521 36.8265 116.506 36.6436 116.526 36.463C116.547 36.2824 116.603 36.1077 116.692 35.9489C116.78 35.79 116.899 35.6502 117.042 35.5373C117.185 35.4234 117.349 35.3388 117.524 35.2884C117.7 35.238 117.884 35.2227 118.066 35.2434C118.247 35.2641 118.423 35.3205 118.583 35.4092C118.743 35.4979 118.884 35.6172 118.997 35.7603C119.226 36.048 119.33 36.4145 119.289 36.7793C119.247 37.1442 119.062 37.4775 118.774 37.706C118.53 37.8996 118.227 38.0052 117.915 38.0056C117.704 38.0071 117.496 37.9606 117.306 37.8698C117.116 37.779 116.949 37.6461 116.818 37.4813ZM114.268 34.0963C114.162 33.9482 114.087 33.7807 114.046 33.6034C114.005 33.4262 113.999 33.2425 114.03 33.0631C114.06 32.8837 114.125 32.7121 114.222 32.558C114.319 32.4039 114.445 32.2704 114.594 32.1652C114.742 32.0598 114.91 31.9845 115.087 31.9438C115.264 31.9031 115.448 31.8977 115.627 31.9279C115.806 31.9582 115.978 32.0235 116.132 32.1201C116.286 32.2167 116.42 32.3427 116.525 32.4909C116.631 32.6388 116.706 32.8062 116.747 32.9833C116.788 33.1605 116.794 33.344 116.763 33.5232C116.733 33.7025 116.668 33.874 116.571 34.028C116.474 34.1819 116.348 34.3152 116.199 34.4203C115.962 34.5912 115.677 34.6819 115.384 34.6792C115.165 34.6772 114.95 34.6231 114.756 34.5215C114.562 34.4198 114.394 34.2735 114.268 34.0946V34.0963ZM111.879 30.6135C111.678 30.3068 111.606 29.9328 111.681 29.5736C111.755 29.2143 111.969 28.8991 112.275 28.6971C112.582 28.4956 112.956 28.424 113.316 28.4982C113.676 28.5724 113.991 28.7863 114.193 29.0928C114.395 29.3994 114.466 29.7735 114.392 30.1329C114.318 30.4923 114.104 30.8075 113.797 31.0092C113.572 31.1581 113.308 31.2374 113.038 31.2371C112.808 31.2369 112.582 31.1796 112.379 31.0705C112.177 30.9614 112.005 30.8038 111.879 30.6119V30.6135ZM109.622 27.0494C109.431 26.7356 109.372 26.3589 109.459 26.002C109.546 25.6451 109.771 25.3372 110.085 25.146C110.24 25.0516 110.413 24.9887 110.593 24.9609C110.772 24.9331 110.956 24.941 111.133 24.9841C111.309 25.0272 111.476 25.1046 111.623 25.212C111.77 25.3194 111.894 25.4547 111.988 25.61C112.083 25.7652 112.146 25.9376 112.174 26.1172C112.202 26.2968 112.195 26.4802 112.152 26.6569C112.109 26.8335 112.031 26.9999 111.924 27.1466C111.816 27.2934 111.681 27.4174 111.525 27.5118C111.309 27.6438 111.06 27.7136 110.807 27.7137C110.569 27.7133 110.335 27.6519 110.127 27.5353C109.92 27.4187 109.746 27.2508 109.622 27.0478V27.0494ZM107.489 23.4136C107.399 23.2553 107.342 23.0809 107.32 22.9004C107.298 22.72 107.312 22.537 107.361 22.3619C107.41 22.1868 107.493 22.0231 107.605 21.88C107.717 21.737 107.857 21.6174 108.015 21.5281C108.174 21.4386 108.348 21.3811 108.529 21.3589C108.709 21.3368 108.892 21.3505 109.068 21.3992C109.243 21.4479 109.407 21.5306 109.55 21.6427C109.693 21.7548 109.813 21.894 109.902 22.0524C109.992 22.2107 110.049 22.3851 110.071 22.5656C110.093 22.746 110.079 22.929 110.03 23.1041C109.981 23.2792 109.898 23.4429 109.786 23.586C109.674 23.7291 109.534 23.8486 109.376 23.9379C109.169 24.0554 108.936 24.1172 108.698 24.117C108.452 24.1169 108.211 24.0515 107.998 23.9277C107.786 23.8038 107.61 23.6259 107.489 23.412V23.4136ZM105.154 19.869C105.07 19.7078 105.018 19.5316 105.002 19.3506C104.986 19.1695 105.006 18.9871 105.061 18.8138C105.116 18.6405 105.205 18.4797 105.322 18.3405C105.439 18.2014 105.582 18.0867 105.744 18.0031C106.069 17.8339 106.449 17.8009 106.799 17.9114C107.15 18.022 107.442 18.2669 107.611 18.5925C107.695 18.7537 107.746 18.93 107.762 19.1111C107.778 19.2923 107.758 19.4747 107.703 19.648C107.648 19.8214 107.559 19.9822 107.442 20.1212C107.325 20.2603 107.181 20.3748 107.02 20.4584C106.823 20.5634 106.605 20.6193 106.382 20.6212C106.128 20.6206 105.879 20.5499 105.662 20.4169C105.445 20.2839 105.269 20.0937 105.154 19.8673V19.869ZM102.057 12.1496C101.968 11.991 101.912 11.8164 101.891 11.6359C101.869 11.4553 101.884 11.2723 101.933 11.0974C101.983 10.9225 102.066 10.759 102.179 10.6163C102.292 10.4736 102.431 10.3545 102.59 10.2658C102.749 10.1768 102.923 10.1201 103.104 10.0987C103.285 10.0773 103.468 10.0917 103.643 10.1412C103.818 10.1907 103.981 10.2742 104.124 10.3869C104.267 10.4997 104.386 10.6394 104.474 10.7982C104.563 10.9565 104.62 11.1308 104.641 11.3111C104.663 11.4914 104.649 11.6742 104.599 11.8489C104.55 12.0237 104.467 12.1871 104.355 12.3298C104.242 12.4725 104.103 12.5916 103.944 12.6804C103.737 12.7966 103.504 12.8577 103.267 12.8579C103.02 12.8578 102.778 12.792 102.565 12.6672C102.353 12.5424 102.177 12.3632 102.057 12.148V12.1496ZM99.6129 8.8688C99.4061 8.56543 99.3284 8.19242 99.3969 7.83181C99.4653 7.47119 99.6744 7.15251 99.978 6.94587C100.282 6.73925 100.655 6.6616 101.016 6.73C101.377 6.7984 101.696 7.00724 101.903 7.31059C102.109 7.61388 102.187 7.98663 102.119 8.3471C102.051 8.70757 101.842 9.02634 101.539 9.23351C101.309 9.39024 101.037 9.4742 100.759 9.47449C100.533 9.4738 100.311 9.41813 100.111 9.3123C99.912 9.20647 99.7415 9.05369 99.6146 8.86717L99.6129 8.8688ZM97.1685 5.74262C96.9217 5.47134 96.7926 5.11342 96.8094 4.74721C96.8262 4.381 96.9875 4.03635 97.2581 3.78877C97.5301 3.5428 97.8883 3.41434 98.2547 3.43143C98.6211 3.44851 98.9659 3.60976 99.2137 3.87996C99.4611 4.15083 99.5908 4.50873 99.5743 4.87507C99.5578 5.24141 99.3964 5.58623 99.1257 5.83381C98.871 6.06757 98.5377 6.19716 98.1919 6.1969C98.0003 6.19529 97.8111 6.15394 97.6364 6.07546C97.4616 5.99698 97.3051 5.8831 97.1767 5.74101L97.1685 5.74262ZM94.3281 3.3166C94.0125 3.12975 93.7839 2.82558 93.6922 2.47068C93.6006 2.11578 93.6535 1.73906 93.8392 1.42299C94.0265 1.10757 94.3313 0.879089 94.6867 0.787551C95.0422 0.696013 95.4195 0.74887 95.7361 0.934531C96.052 1.12108 96.2809 1.42525 96.3726 1.78028C96.4642 2.13531 96.4111 2.51218 96.225 2.82814C96.1027 3.03651 95.9279 3.20925 95.7181 3.32922C95.5082 3.44919 95.2706 3.5122 95.0288 3.51198C94.7846 3.50862 94.5456 3.44065 94.3362 3.31497L94.3281 3.3166Z" fill="#CA9E67"/>
<path d="M98.5658 12.2443C98.4116 12.4706 98.1937 12.646 97.9396 12.7485C97.6856 12.851 97.4069 12.8759 97.1386 12.8202C96.8704 12.7644 96.6248 12.6304 96.4328 12.4351C96.2408 12.2398 96.1111 11.9921 96.06 11.7231C96.009 11.4542 96.0389 11.1762 96.146 10.9242C96.2531 10.6723 96.4326 10.4577 96.6617 10.3077C96.8908 10.1576 97.1594 10.0789 97.4333 10.0813C97.7073 10.0837 97.9743 10.1673 98.2008 10.3214C98.5044 10.528 98.7134 10.8467 98.7819 11.2073C98.8503 11.568 98.7726 11.941 98.5658 12.2443ZM101.486 12.5797C101.246 12.4482 100.972 12.3909 100.699 12.4149C100.426 12.4389 100.166 12.5432 99.9529 12.7147C99.7394 12.8861 99.5815 13.117 99.4993 13.3781C99.417 13.6391 99.4141 13.9187 99.4909 14.1815C99.5677 14.4442 99.7208 14.6783 99.9307 14.8541C100.141 15.03 100.398 15.1397 100.67 15.1693C100.943 15.199 101.218 15.1473 101.461 15.0208C101.704 14.8943 101.904 14.6987 102.035 14.4587C102.21 14.1367 102.251 13.7586 102.148 13.4069C102.045 13.0551 101.807 12.7584 101.486 12.5814V12.5797ZM105.29 14.2373C104.956 14.0885 104.578 14.0772 104.236 14.2057C103.895 14.3342 103.618 14.5922 103.466 14.9236C103.313 15.255 103.298 15.6331 103.423 15.9756C103.549 16.3181 103.804 16.5974 104.134 16.7528C104.315 16.8351 104.512 16.8778 104.711 16.8782C105.027 16.878 105.333 16.7699 105.579 16.5721C105.825 16.3742 105.996 16.0983 106.063 15.7901C106.131 15.482 106.091 15.16 105.95 14.8776C105.809 14.5952 105.576 14.3693 105.29 14.2373ZM109.432 15.7287C109.188 15.6052 108.912 15.5568 108.64 15.5898C108.368 15.6229 108.112 15.7357 107.904 15.9141C107.696 16.0925 107.546 16.3285 107.473 16.5922C107.399 16.8559 107.405 17.1354 107.491 17.3955C107.576 17.6556 107.737 17.8845 107.953 18.0533C108.169 18.2221 108.429 18.3232 108.703 18.3438C108.976 18.3644 109.249 18.3036 109.488 18.1691C109.726 18.0346 109.92 17.8324 110.043 17.5881C110.208 17.2609 110.236 16.8818 110.121 16.5339C110.007 16.186 109.759 15.8976 109.432 15.732V15.7287ZM93.1359 7.94259C92.9488 8.14268 92.8253 8.39375 92.781 8.66401C92.7367 8.93427 92.7737 9.21159 92.8873 9.46085C93.0008 9.7101 93.1858 9.9201 93.4189 10.0642C93.6519 10.2084 93.9225 10.2802 94.1964 10.2707C94.4704 10.2611 94.7353 10.1705 94.9577 10.0104C95.1801 9.85035 95.3499 9.62794 95.4457 9.37137C95.5416 9.11479 95.5591 8.83558 95.496 8.56907C95.4329 8.30256 95.2921 8.06075 95.0915 7.87422C94.8223 7.62539 94.4654 7.49323 94.0989 7.50666C93.7324 7.52008 93.3862 7.67799 93.1359 7.94585V7.94259ZM90.4373 2.94399C90.5132 2.99331 90.5934 3.03581 90.6768 3.071C90.7605 3.10565 90.8473 3.13236 90.9359 3.15078C91.025 3.16831 91.1157 3.17704 91.2065 3.17683C91.2973 3.1772 91.3879 3.16847 91.477 3.15078C91.6548 3.11394 91.824 3.04377 91.9756 2.94399C92.0517 2.89411 92.1221 2.83624 92.1859 2.77139C92.2505 2.70706 92.3089 2.63674 92.3602 2.56136C92.4094 2.48564 92.4514 2.40552 92.4857 2.32202C92.5211 2.23869 92.5479 2.15192 92.5656 2.06312C92.6003 1.88461 92.6003 1.70108 92.5656 1.52257C92.5479 1.43377 92.5211 1.34702 92.4857 1.26369C92.4514 1.18019 92.4094 1.10005 92.3602 1.02432C92.3089 0.948946 92.2505 0.878629 92.1859 0.814298C92.1221 0.749447 92.0517 0.691578 91.9756 0.641699C91.8244 0.54152 91.655 0.471828 91.477 0.436543C91.2984 0.40071 91.1145 0.40071 90.9359 0.436543C90.8473 0.454402 90.7606 0.480566 90.6768 0.514693C90.5084 0.583499 90.3554 0.685387 90.2271 0.814298C90.1629 0.878663 90.1051 0.948982 90.0543 1.02432C89.9558 1.1764 89.8862 1.3453 89.849 1.52257C89.8121 1.70086 89.8121 1.88482 89.849 2.06312C89.8674 2.15173 89.8942 2.23842 89.9288 2.32202C89.963 2.40622 90.0061 2.48646 90.0576 2.56136C90.1046 2.63675 90.1592 2.70711 90.2205 2.77139C90.2872 2.83653 90.3598 2.89541 90.4373 2.94725V2.94399ZM133.48 38.1606C133.603 38.3694 133.778 38.5425 133.988 38.6628C134.198 38.783 134.436 38.8462 134.678 38.846C134.891 38.8457 135.1 38.7964 135.291 38.7021C135.482 38.6077 135.648 38.4708 135.777 38.3019C135.906 38.133 135.994 37.9367 136.035 37.7282C136.076 37.5197 136.068 37.3045 136.013 37.0995C135.957 36.8944 135.855 36.7049 135.714 36.5457C135.573 36.3864 135.397 36.2617 135.201 36.1812C135.004 36.1007 134.791 36.0666 134.579 36.0815C134.367 36.0963 134.161 36.1598 133.977 36.2669C133.82 36.3587 133.682 36.4805 133.572 36.6256C133.461 36.7706 133.381 36.936 133.335 37.1123C133.288 37.2885 133.278 37.4721 133.303 37.6525C133.328 37.833 133.388 38.0067 133.48 38.1638V38.1606ZM92.7057 5.00531C92.5702 4.76683 92.367 4.57388 92.1217 4.45088C91.8764 4.32788 91.6001 4.28034 91.3278 4.31431C91.0555 4.34829 90.7993 4.46223 90.5919 4.64173C90.3844 4.82122 90.2349 5.05819 90.1623 5.32262C90.0896 5.58706 90.0972 5.86708 90.1839 6.12723C90.2707 6.38738 90.4327 6.61596 90.6496 6.78404C90.8664 6.95212 91.1283 7.05213 91.4021 7.07142C91.6758 7.09071 91.9492 7.02841 92.1875 6.8924C92.3457 6.80262 92.4846 6.68255 92.5962 6.53907C92.7079 6.39559 92.7902 6.23151 92.8383 6.05623C92.8864 5.88095 92.8995 5.69792 92.8767 5.51758C92.854 5.33725 92.7959 5.16317 92.7057 5.00531ZM120.083 22.4076C119.776 22.2104 119.404 22.1422 119.046 22.218C118.689 22.2938 118.377 22.5073 118.176 22.8122C117.976 23.1171 117.904 23.4887 117.977 23.8462C118.049 24.2037 118.26 24.5182 118.563 24.7213C118.787 24.8703 119.051 24.9497 119.321 24.9493C119.619 24.95 119.91 24.8544 120.15 24.6766C120.389 24.4988 120.565 24.2485 120.651 23.9627C120.737 23.677 120.728 23.3712 120.625 23.091C120.523 22.8108 120.333 22.5711 120.083 22.4076ZM133.241 33.2043C133.059 32.9991 132.821 32.8522 132.557 32.7822C132.292 32.7122 132.012 32.7222 131.753 32.811C131.494 32.8998 131.267 33.0634 131.101 33.2811C130.935 33.4987 130.837 33.7607 130.82 34.0338C130.803 34.307 130.867 34.5791 131.005 34.8157C131.142 35.0524 131.347 35.2429 131.593 35.3632C131.839 35.4835 132.116 35.5283 132.387 35.4918C132.658 35.4553 132.913 35.3392 133.119 35.1581C133.393 34.9144 133.56 34.5717 133.582 34.2054C133.604 33.8392 133.479 33.4791 133.236 33.2043H133.241ZM128.249 30.2165C128.126 30.3501 128.031 30.5066 127.968 30.6772C127.905 30.8477 127.877 31.0289 127.885 31.2103C127.892 31.3918 127.936 31.5699 128.012 31.7347C128.089 31.8994 128.197 32.0474 128.331 32.1704C128.532 32.3559 128.784 32.4776 129.055 32.52C129.326 32.5623 129.603 32.5235 129.852 32.4084C130.1 32.2933 130.309 32.107 130.452 31.8732C130.595 31.6395 130.665 31.3686 130.653 31.0951C130.642 30.8215 130.55 30.5574 130.388 30.3363C130.226 30.1152 130.003 29.9469 129.745 29.8529C129.488 29.7588 129.208 29.7432 128.942 29.8079C128.676 29.8726 128.435 30.0148 128.249 30.2165ZM135.838 44.5773C135.804 44.4938 135.762 44.4137 135.713 44.338C135.662 44.2626 135.603 44.1923 135.538 44.1279C135.475 44.0631 135.404 44.0052 135.328 43.9554C135.253 43.9063 135.173 43.8638 135.09 43.8283C135.007 43.7944 134.92 43.7683 134.831 43.7502C134.652 43.7144 134.468 43.7144 134.289 43.7502C134.2 43.7683 134.113 43.7944 134.029 43.8283C133.947 43.8638 133.867 43.9063 133.792 43.9554C133.716 44.0065 133.645 44.0642 133.58 44.1279C133.518 44.1922 133.464 44.2626 133.417 44.338C133.365 44.4129 133.322 44.4931 133.288 44.5773C133.253 44.6609 133.227 44.7476 133.208 44.8362C133.167 45.0377 133.17 45.2458 133.219 45.4456C133.268 45.6454 133.361 45.8317 133.491 45.9911C133.621 46.1506 133.785 46.2791 133.971 46.3673C134.157 46.4556 134.361 46.5014 134.566 46.5014C134.772 46.5014 134.976 46.4556 135.161 46.3673C135.347 46.2791 135.511 46.1506 135.641 45.9911C135.771 45.8317 135.864 45.6454 135.913 45.4456C135.962 45.2458 135.966 45.0377 135.925 44.8362C135.905 44.7466 135.874 44.6596 135.833 44.5773H135.838ZM137.409 41.2867C137.393 41.017 137.299 40.7579 137.137 40.5413C136.976 40.3246 136.754 40.16 136.5 40.0676C136.246 39.9752 135.97 39.9591 135.707 40.0214C135.444 40.0836 135.205 40.2214 135.019 40.4179C134.834 40.6143 134.71 40.8607 134.663 41.1267C134.615 41.3927 134.647 41.6667 134.754 41.9149C134.861 42.163 135.038 42.3746 135.264 42.5233C135.489 42.6721 135.754 42.7516 136.024 42.7521H136.102C136.469 42.7303 136.813 42.5637 137.057 42.2888C137.301 42.014 137.426 41.6535 137.404 41.2867H137.409ZM126.96 27.3623C126.671 27.1549 126.314 27.0663 125.962 27.1147C125.609 27.1632 125.289 27.3449 125.067 27.6225C124.845 27.9001 124.739 28.2522 124.769 28.6062C124.8 28.9602 124.965 29.2889 125.231 29.5245C125.518 29.7538 125.885 29.8598 126.25 29.8192C126.615 29.7786 126.949 29.5947 127.179 29.308C127.408 29.0212 127.514 28.6552 127.474 28.2903C127.433 27.9254 127.249 27.5916 126.962 27.3623H126.96ZM112.846 18.0391C112.687 17.9465 112.511 17.8866 112.328 17.8629C112.145 17.8392 111.96 17.8521 111.782 17.9009C111.604 17.9498 111.438 18.0335 111.293 18.1473C111.148 18.2611 111.028 18.4026 110.938 18.5635C110.849 18.7245 110.793 18.9017 110.772 19.0847C110.752 19.2677 110.769 19.4528 110.822 19.6293C110.874 19.8058 110.961 19.9701 111.078 20.1125C111.195 20.2549 111.339 20.3725 111.502 20.4586C111.706 20.573 111.937 20.633 112.171 20.6329C112.478 20.6333 112.777 20.5318 113.02 20.3443C113.263 20.1568 113.437 19.8939 113.514 19.597C113.591 19.3001 113.567 18.986 113.447 18.704C113.326 18.422 113.114 18.1881 112.846 18.0391ZM116.503 20.1558C116.268 20.0142 115.997 19.9453 115.724 19.9578C115.45 19.9703 115.186 20.0635 114.965 20.2258C114.745 20.3881 114.577 20.6121 114.484 20.8695C114.391 21.127 114.376 21.4062 114.442 21.6719C114.507 21.9377 114.65 22.1781 114.853 22.3626C115.055 22.5471 115.308 22.6675 115.579 22.7086C115.85 22.7497 116.126 22.7097 116.375 22.5935C116.623 22.4773 116.831 22.2902 116.972 22.0559C117.066 21.9002 117.128 21.7275 117.156 21.5477C117.183 21.3679 117.174 21.1845 117.13 21.008C117.086 20.8316 117.008 20.6655 116.9 20.5192C116.792 20.373 116.656 20.2495 116.5 20.1558H116.503ZM123.572 24.8011C123.35 24.6414 123.085 24.5513 122.811 24.542C122.537 24.5327 122.267 24.6047 122.034 24.7489C121.802 24.8931 121.617 25.103 121.503 25.3521C121.39 25.6012 121.353 25.8783 121.397 26.1484C121.441 26.4185 121.565 26.6694 121.752 26.8695C121.938 27.0695 122.18 27.2098 122.447 27.2724C122.714 27.3351 122.993 27.3173 123.249 27.2215C123.506 27.1256 123.728 26.9559 123.888 26.7338C123.995 26.586 124.071 26.4187 124.112 26.2415C124.153 26.0644 124.159 25.8808 124.13 25.7013C124.1 25.5217 124.035 25.3498 123.939 25.1954C123.843 25.0409 123.717 24.9069 123.569 24.8011H123.572Z" fill="#936037"/>
</svg>
