<svg viewBox="0 0 17 21" xmlns="http://www.w3.org/2000/svg">
<path d="M8.64224 3.2271C9.27422 3.2271 9.78655 2.71477 9.78655 2.08279C9.78655 1.4508 9.27422 0.938477 8.64224 0.938477C8.01025 0.938477 7.49792 1.4508 7.49792 2.08279C7.49792 2.71477 8.01025 3.2271 8.64224 3.2271Z"/>
<path d="M8.64275 20.9385C10.2448 20.9385 11.5417 19.6416 11.5417 18.0396H5.74384C5.74384 19.6416 7.04072 20.9385 8.64275 20.9385Z" fill-opacity="0.5"/>
<path d="M14.7833 14.327L14.3256 8.40206C14.1349 5.93544 12.3549 3.91382 10.0535 3.31624C9.32879 3.20181 7.80304 3.18909 7.21817 3.31624C4.90412 3.91382 3.13679 5.93544 2.94608 8.40206L2.48835 14.327C1.54747 14.3779 0.746456 15.0899 0.657454 16.0054C0.606596 16.5267 0.771885 17.0607 1.12789 17.4421C1.4839 17.8363 1.97977 18.0524 2.51378 18.0524H6.03571H7.14188H10.1425H11.2487H14.4528H14.7706C15.2919 18.0524 15.8005 17.8236 16.1565 17.4421C16.5125 17.048 16.6778 16.5267 16.6269 16.0054C16.5379 15.0899 15.7369 14.3652 14.7833 14.327Z"/>
</svg>
