<svg width="97" height="97" viewBox="0 0 97 97" fill="none" xmlns="http://www.w3.org/2000/svg">
<g clip-path="url(#clip0_236_149)">
<circle opacity="0.12" cx="48.5444" cy="48.4863" r="48" fill="#B4962A"/>
<path fill-rule="evenodd" clip-rule="evenodd" d="M48.5444 30.4863C46.8876 30.4863 45.5444 31.8295 45.5444 33.4863V55.4863C45.5444 57.1432 46.8876 58.4863 48.5444 58.4863C50.2013 58.4863 51.5444 57.1432 51.5444 55.4863V33.4863C51.5444 31.8295 50.2013 30.4863 48.5444 30.4863ZM48.5444 66.4863C46.8876 66.4863 45.5444 65.1432 45.5444 63.4863C45.5444 61.8295 46.8876 60.4863 48.5444 60.4863C50.2013 60.4863 51.5444 61.8295 51.5444 63.4863C51.5444 65.1432 50.2013 66.4863 48.5444 66.4863Z" fill="#B4962A"/>
</g>
<defs>
<clipPath id="clip0_236_149">
<rect width="96" height="96" fill="white" transform="translate(0.544434 0.486328)"/>
</clipPath>
</defs>
</svg>
