<svg width="15" height="14" viewBox="0 0 15 14" fill="none" xmlns="http://www.w3.org/2000/svg">
<path d="M11.2075 3.24936L11.1367 3.0937C10.9455 2.6904 10.7259 2.22342 10.5913 1.95455C10.2655 1.31776 9.70587 0.963985 9.01879 0.956909H5.68254C4.99546 0.963985 4.44296 1.31776 4.11712 1.95455C3.97546 2.23757 3.73462 2.747 3.53629 3.16446L3.49379 3.24936C3.47254 3.30597 3.41587 3.33427 3.35921 3.33427C1.65212 3.33427 0.270874 4.72106 0.270874 6.41917V10.622C0.270874 12.3201 1.65212 13.7069 3.35921 13.7069H11.3492C13.0492 13.7069 14.4375 12.3201 14.4375 10.622V6.41917C14.4375 4.72106 13.0492 3.33427 11.3492 3.33427C11.2855 3.33427 11.2359 3.29889 11.2075 3.24936Z" fill="#CBB04F"/>
<path fill-rule="evenodd" clip-rule="evenodd" d="M10.6904 5.96626C10.6904 6.32003 10.9737 6.60305 11.3279 6.60305C11.6821 6.60305 11.9725 6.32003 11.9725 5.96626C11.9725 5.61248 11.6821 5.32239 11.3279 5.32239C10.9737 5.32239 10.6904 5.61248 10.6904 5.96626ZM9.31627 10.2398C8.81336 10.7422 8.11919 11.0535 7.35419 11.0535C6.61044 11.0535 5.91627 10.7634 5.38502 10.2398C4.86086 9.70919 4.57044 9.01579 4.57044 8.27287C4.56336 7.53702 4.85377 6.84362 5.37794 6.31296C5.90919 5.7823 6.61044 5.49221 7.35419 5.49221C8.09794 5.49221 8.79919 5.7823 9.32336 6.30589C9.84752 6.83655 10.1379 7.53702 10.1379 8.27287C10.1309 9.04409 9.81919 9.73749 9.31627 10.2398ZM7.35433 6.55353C6.89391 6.55353 6.46183 6.73042 6.12891 7.06297C5.80308 7.38844 5.62599 7.82004 5.63308 8.2658V8.27287C5.63308 8.73278 5.81016 9.16438 6.13599 9.48985C6.46183 9.81532 6.89391 9.99221 7.35433 9.99221C8.30349 9.99221 9.06849 9.22098 9.07558 8.27287C9.07558 7.81297 8.89849 7.38136 8.57266 7.05589C8.24683 6.73042 7.81474 6.55353 7.35433 6.55353Z" fill="white"/>
</svg>
