<svg viewBox="0 0 21 22" xmlns="http://www.w3.org/2000/svg">
<path d="M14.8355 4.81018H13.8355C13.8355 3.97475 13.5036 3.17356 12.9129 2.58282C12.3221 1.99209 11.5209 1.66016 10.6855 1.66016C9.85007 1.66016 9.04885 1.99209 8.45811 2.58282C7.86737 3.17356 7.53551 3.97475 7.53551 4.81018H6.53551C6.53551 3.70953 6.97275 2.65395 7.75102 1.87567C8.5293 1.0974 9.58485 0.660156 10.6855 0.660156C11.7861 0.660156 12.8417 1.0974 13.62 1.87567C14.3983 2.65395 14.8355 3.70953 14.8355 4.81018ZM19.4355 4.81018H14.8355V8.04016H13.8355V4.81018H7.53551V8.04016H6.53551V4.81018H1.94551C1.79957 4.8083 1.655 4.83837 1.52193 4.89832C1.38885 4.95826 1.27051 5.04662 1.17522 5.15717C1.07992 5.26771 1.00997 5.39775 0.970291 5.53821C0.930611 5.67866 0.922147 5.82609 0.945511 5.97015L3.26552 20.3202C3.30385 20.5568 3.4259 20.7718 3.60945 20.926C3.793 21.0801 4.02583 21.1632 4.26552 21.1602H17.1055C17.3452 21.1632 17.578 21.0801 17.7616 20.926C17.9451 20.7718 18.0672 20.5568 18.1055 20.3202L20.4255 5.97015C20.4487 5.82692 20.4405 5.68038 20.4014 5.54065C20.3623 5.40092 20.2932 5.27138 20.1991 5.16101C20.1049 5.05064 19.9878 4.96207 19.8559 4.90149C19.7241 4.84091 19.5806 4.80976 19.4355 4.81018Z" />
</svg>
