<svg viewBox="0 0 21 21" fill="none" xmlns="http://www.w3.org/2000/svg">
<path d="M0.844727 0.938483H2.29501C2.58161 0.937522 2.85916 1.03891 3.07763 1.22442C3.29611 1.40992 3.44117 1.66729 3.4867 1.95026L5.83636 15.9471C5.88408 16.2321 6.03098 16.491 6.25109 16.6782C6.4712 16.8654 6.75037 16.9688 7.03931 16.9701H17.3374" stroke="#A6A6A6" stroke-linecap="round" stroke-linejoin="round"/>
<path fill-rule="evenodd" clip-rule="evenodd" d="M5.58853 14.2273H17.5055C17.7521 14.2394 17.9957 14.1699 18.1989 14.0297C18.4021 13.8895 18.5535 13.6864 18.6297 13.4516L20.8782 6.70618C20.9354 6.53682 20.9514 6.35625 20.9249 6.17947C20.8983 6.00269 20.83 5.83476 20.7256 5.68967C20.6212 5.54458 20.4837 5.42644 20.3245 5.34514C20.1653 5.26383 19.989 5.22171 19.8102 5.22217H4.03711L5.58853 14.2273Z" fill="#A6A6A6" fill-opacity="0.5"/>
<path d="M7.55703 20.9383C8.26485 20.9383 8.83866 20.3645 8.83866 19.6566C8.83866 18.9488 8.26485 18.375 7.55703 18.375C6.8492 18.375 6.27539 18.9488 6.27539 19.6566C6.27539 20.3645 6.8492 20.9383 7.55703 20.9383Z" fill="#A6A6A6"/>
<path d="M16.3598 20.9383C17.0676 20.9383 17.6414 20.3645 17.6414 19.6566C17.6414 18.9488 17.0676 18.375 16.3598 18.375C15.6519 18.375 15.0781 18.9488 15.0781 19.6566C15.0781 20.3645 15.6519 20.9383 16.3598 20.9383Z" fill="#A6A6A6"/>
</svg>
