<svg width="20" height="21" viewBox="0 0 20 21" fill="none" xmlns="http://www.w3.org/2000/svg">
<g clip-path="url(#clip0_227_939)">
<path opacity="0.5" d="M11.86 15.672L9.55002 17.852C6.80161 16.0791 4.46288 13.7404 2.68997 10.992L4.86996 8.68201C5.69068 10.1227 6.69954 11.4476 7.86996 12.622C9.06212 13.8073 10.4034 14.8326 11.86 15.672Z" fill="#CBB04F"/>
<path d="M2.64999 10.992C0.678988 8.19878 -0.238659 4.79755 0.0599633 1.392C0.0961249 1.15355 0.217264 0.936201 0.401028 0.780002C0.584792 0.623802 0.818799 0.539269 1.05996 0.541995H3.39999H5.86001C6.10417 0.539924 6.3406 0.627277 6.52481 0.78754C6.70902 0.947802 6.82828 1.16989 6.86001 1.41199L7.42001 5.28202C7.44385 5.43493 7.43183 5.59128 7.38498 5.73877C7.33812 5.88627 7.2577 6.02086 7.14999 6.13199L4.80996 8.612L2.64999 10.992Z" fill="#CBB04F"/>
<path d="M19.14 20.432C15.7385 20.7364 12.3396 19.822 9.55002 17.852L11.86 15.672L14.34 13.332C14.45 13.2258 14.583 13.1462 14.7286 13.0993C14.8742 13.0525 15.0287 13.0398 15.18 13.062L19.05 13.622C19.2921 13.6538 19.5142 13.773 19.6745 13.9572C19.8347 14.1414 19.9221 14.3779 19.92 14.622V17.072V19.422C19.928 19.6549 19.8545 19.8832 19.7121 20.0676C19.5697 20.252 19.3673 20.3809 19.14 20.432Z" fill="#CBB04F"/>
</g>
<defs>
<clipPath id="clip0_227_939">
<rect width="20" height="20" fill="white" transform="translate(0 0.541992)"/>
</clipPath>
</defs>
</svg>
