<svg width="17" height="22" viewBox="0 0 17 22" fill="none" xmlns="http://www.w3.org/2000/svg">
<path d="M2.39233 5.7749H14.8923V18.7149C14.8923 19.2453 14.6816 19.754 14.3065 20.1291C13.9315 20.5042 13.4228 20.7149 12.8923 20.7149H4.39233C3.8619 20.7149 3.35319 20.5042 2.97812 20.1291C2.60305 19.754 2.39233 19.2453 2.39233 18.7149V5.7749V5.7749Z" stroke="#CBB04F" stroke-miterlimit="10"/>
<path d="M6.50241 0.714768H10.8024C10.935 0.714768 11.0622 0.767446 11.156 0.861215C11.2497 0.954983 11.3024 1.08216 11.3024 1.21477V3.37477H5.97241V1.21477C5.97229 1.1465 5.98615 1.07894 6.01313 1.01623C6.04011 0.95353 6.07965 0.897014 6.1293 0.85017C6.17896 0.803327 6.23768 0.767146 6.30185 0.74386C6.36602 0.720573 6.43427 0.710672 6.50241 0.714768Z" stroke="#CBB04F" stroke-miterlimit="10"/>
<path d="M15.4722 4.29455V3.16455H1.8022V4.29455H0.502197V5.77455H16.7722V4.29455H15.4722Z" fill="#CBB04F"/>
<path d="M5.68237 8.83496V18.015" stroke="#CBB04F" stroke-opacity="0.5" stroke-miterlimit="10"/>
<path d="M8.64233 8.83496V18.015" stroke="#CBB04F" stroke-opacity="0.5" stroke-miterlimit="10"/>
<path d="M11.5925 8.83496V18.015" stroke="#CBB04F" stroke-opacity="0.5" stroke-miterlimit="10"/>
</svg>
