<svg width="14" height="21" viewBox="0 0 14 21" fill="none" xmlns="http://www.w3.org/2000/svg">
<g clip-path="url(#clip0_236_169)">
<path opacity="0.5" d="M7.00011 20.0209C10.5623 20.0209 13.4501 19.421 13.4501 18.6809C13.4501 17.9409 10.5623 17.3409 7.00011 17.3409C3.43787 17.3409 0.55011 17.9409 0.55011 18.6809C0.55011 19.421 3.43787 20.0209 7.00011 20.0209Z" fill="#CBB04F"/>
<path d="M7.00009 0.0610427C5.22579 0.0610427 3.52418 0.765866 2.26956 2.02048C1.01494 3.2751 0.310089 4.97675 0.310089 6.75105C0.310089 10.441 5.75009 18.751 7.00009 18.751C8.25009 18.751 13.6901 10.481 13.6901 6.75105C13.6914 5.87213 13.5193 5.0016 13.1836 4.18934C12.8478 3.37708 12.3551 2.63904 11.7336 2.01756C11.1121 1.39607 10.3741 0.903342 9.5618 0.567604C8.74954 0.231866 7.879 0.0597259 7.00009 0.0610427ZM7.00009 9.55103C6.4463 9.55103 5.90501 9.38684 5.44455 9.07917C4.98409 8.7715 4.62516 8.33418 4.41324 7.82255C4.20131 7.31091 4.1459 6.74793 4.25394 6.20478C4.36198 5.66163 4.62865 5.16274 5.02023 4.77116C5.41182 4.37957 5.91074 4.11287 6.45389 4.00483C6.99703 3.89679 7.55999 3.95227 8.07162 4.16419C8.58326 4.37612 9.02055 4.73498 9.32822 5.19544C9.63588 5.6559 9.80014 6.19726 9.80014 6.75105C9.78707 7.48588 9.48658 8.18634 8.96317 8.70228C8.43975 9.21821 7.73503 9.50856 7.00009 9.51105V9.55103Z" fill="#CBB04F"/>
</g>
<defs>
<clipPath id="clip0_236_169">
<rect width="13.38" height="20" fill="white" transform="translate(0.31012 0.0209961)"/>
</clipPath>
</defs>
</svg>
