<svg width="21" height="21" viewBox="0 0 21 21" fill="none" xmlns="http://www.w3.org/2000/svg">
<path d="M7.05725 7.6503H8.51043C8.60391 6.43507 9.41973 5.67873 10.7029 5.67873C11.9692 5.67873 12.785 6.45206 12.785 7.50583C12.785 8.41513 12.4026 8.95051 11.4168 9.55387C10.2525 10.2507 9.70866 11.0155 9.71716 12.1373V12.9191H11.2043V12.3667C11.2043 11.4744 11.5103 10.9986 12.5895 10.3612C13.6773 9.70684 14.3656 8.76355 14.3656 7.42934C14.3656 5.67873 12.904 4.35303 10.7624 4.35303C8.37446 4.35303 7.15073 5.8147 7.05725 7.6503ZM10.465 16.7943C11.0174 16.7943 11.4338 16.3694 11.4338 15.8255C11.4338 15.2731 11.0174 14.8567 10.465 14.8567C9.92112 14.8567 9.49621 15.2731 9.49621 15.8255C9.49621 16.3694 9.92112 16.7943 10.465 16.7943Z" fill="#A6A6A6"/>
<circle cx="10.7114" cy="10.1904" r="9.5" stroke="#A6A6A6"/>
</svg>
