<svg viewBox="0 0 21 21" xmlns="http://www.w3.org/2000/svg">
<path d="M10.0998 0.189941L0.869766 6.26996C0.279766 6.65996 0.589758 7.47992 1.32976 7.47992H1.92976C2.02436 7.47312 2.11937 7.48511 2.20934 7.51514C2.2993 7.54517 2.38245 7.59265 2.45399 7.65491C2.52554 7.71716 2.58409 7.79298 2.62627 7.87793C2.66844 7.96288 2.69344 8.05533 2.69978 8.14996V19.3799C2.71514 19.5701 2.80432 19.7467 2.94823 19.8719C3.09214 19.9971 3.27933 20.061 3.46977 20.0499H7.38976C7.48435 20.0567 7.57939 20.0448 7.66936 20.0148C7.75932 19.9847 7.84247 19.9372 7.91402 19.8749C7.98557 19.8127 8.04411 19.7369 8.08629 19.652C8.12846 19.567 8.15343 19.4746 8.15977 19.3799V13.8099C8.17513 13.6198 8.26431 13.4432 8.40822 13.318C8.55213 13.1928 8.73932 13.1289 8.92976 13.14H12.1898C12.2844 13.1332 12.3794 13.1451 12.4693 13.1751C12.5593 13.2051 12.6425 13.2527 12.714 13.3149C12.7856 13.3772 12.8441 13.453 12.8863 13.5379C12.9285 13.6229 12.9534 13.7153 12.9598 13.8099V19.4199C12.9751 19.6101 13.0643 19.7866 13.2082 19.9119C13.3521 20.0371 13.5393 20.101 13.7298 20.09H17.6498C17.7444 20.0968 17.8394 20.0848 17.9293 20.0547C18.0193 20.0247 18.1024 19.9772 18.174 19.915C18.2455 19.8527 18.3041 19.7769 18.3463 19.692C18.3884 19.607 18.4134 19.5146 18.4198 19.4199V8.14996C18.4351 7.95982 18.5243 7.78324 18.6682 7.65802C18.8121 7.5328 18.9993 7.46885 19.1898 7.47992H19.7898C20.5298 7.47992 20.8398 6.65996 20.2498 6.26996L11.0198 0.189941C10.8826 0.101658 10.7229 0.0546875 10.5598 0.0546875C10.3966 0.0546875 10.237 0.101658 10.0998 0.189941Z" />
</svg>
