<svg viewBox="0 0 24 25" fill="none" xmlns="http://www.w3.org/2000/svg">
<path opacity="0.4" d="M2 6.86302C2 4.41202 4.03024 2.41602 6.52453 2.41602H11.4856C13.9748 2.41602 16 4.40602 16 6.85302V17.969C16 20.421 13.9698 22.416 11.4744 22.416H6.51537C4.02515 22.416 2 20.426 2 17.979V17.039V6.86302Z" fill="#CBB04F"/>
<path d="M21.7789 11.8708L18.9331 8.96181C18.639 8.66181 18.1657 8.66181 17.8725 8.96381C17.5803 9.26581 17.5813 9.75281 17.8745 10.0528L19.4337 11.6458H17.9387H9.54844C9.13452 11.6458 8.79852 11.9908 8.79852 12.4158C8.79852 12.8418 9.13452 13.1858 9.54844 13.1858H19.4337L17.8745 14.7788C17.5813 15.0788 17.5803 15.5658 17.8725 15.8678C18.0196 16.0188 18.2114 16.0948 18.4043 16.0948C18.5952 16.0948 18.787 16.0188 18.9331 15.8698L21.7789 12.9618C21.9201 12.8168 22 12.6208 22 12.4158C22 12.2118 21.9201 12.0158 21.7789 11.8708" fill="#CBB04F"/>
</svg>
