<svg viewBox="0 0 21 21" xmlns="http://www.w3.org/2000/svg">
<path d="M17.7033 7.90936L16.3133 1.61938C16.2154 1.17485 15.9689 0.777025 15.6143 0.491572C15.2598 0.206119 14.8185 0.0501075 14.3633 0.0493727H6.42328C5.95957 0.0385533 5.50651 0.189238 5.14166 0.475642C4.77681 0.762046 4.52287 1.16637 4.42328 1.61938L3.03326 7.90936C2.99975 8.05773 3.00054 8.21183 3.03555 8.35986C3.07056 8.50789 3.13889 8.64596 3.23532 8.76361C3.33175 8.88125 3.45373 8.97537 3.59201 9.03875C3.73029 9.10214 3.8812 9.13313 4.03326 9.12939H16.7033C16.8553 9.13313 17.0063 9.10214 17.1445 9.03875C17.2828 8.97537 17.4048 8.88125 17.5012 8.76361C17.5977 8.64596 17.666 8.50789 17.701 8.35986C17.736 8.21183 17.7368 8.05773 17.7033 7.90936V7.90936ZM9.33328 2.58941H6.98327C6.96368 2.58926 6.94471 2.59628 6.92996 2.60919C6.91521 2.62209 6.90574 2.63992 6.90329 2.65936L6.49328 4.50939L5.49328 4.29937L5.90329 2.43939C5.95595 2.19776 6.08993 1.98155 6.28287 1.82684C6.4758 1.67213 6.71599 1.58832 6.96328 1.58941H9.31326L9.33328 2.58941ZM15.3333 18.8294L13.9333 12.5394C13.8354 12.0948 13.5889 11.697 13.2343 11.4116C12.8798 11.1261 12.4384 10.9701 11.9833 10.9694H4.00326C3.54809 10.9701 3.1068 11.1261 2.75226 11.4116C2.39771 11.697 2.15114 12.0948 2.05328 12.5394L0.703275 18.8094C0.669765 18.9578 0.670553 19.1118 0.705564 19.2598C0.740575 19.4079 0.808873 19.546 0.905302 19.6636C1.00173 19.7813 1.12374 19.8753 1.26202 19.9387C1.4003 20.0021 1.55121 20.0331 1.70328 20.0294H14.3733C14.5186 20.0213 14.6603 19.9817 14.7887 19.9133C14.9171 19.8448 15.0289 19.7492 15.1165 19.633C15.2041 19.5168 15.2653 19.383 15.2959 19.2407C15.3264 19.0985 15.3255 18.9513 15.2933 18.8094L15.3333 18.8294ZM7.07327 13.4994H4.70328C4.6825 13.4989 4.66219 13.5055 4.64578 13.5183C4.62937 13.5311 4.61789 13.5491 4.61328 13.5694L4.20328 15.4294L3.20328 15.2094L3.61328 13.3594C3.66427 13.1142 3.79886 12.8944 3.99405 12.7375C4.18923 12.5806 4.43289 12.4965 4.68329 12.4994H7.02328L7.07327 13.4994ZM15.6033 20.0494H19.7133H16.6333C16.851 19.5666 16.9071 19.0266 16.7933 18.5094L15.4033 12.2194C15.3031 11.7709 15.1162 11.3462 14.8533 10.9694H17.3433C17.807 10.9585 18.26 11.1093 18.6249 11.3957C18.9897 11.6821 19.2437 12.0864 19.3433 12.5394L20.7033 18.8094C20.7404 18.9591 20.7423 19.1154 20.709 19.266C20.6756 19.4167 20.6079 19.5575 20.511 19.6775C20.4142 19.7976 20.2909 19.8937 20.1508 19.9582C20.0106 20.0227 19.8575 20.0539 19.7033 20.0494H15.6033Z" />
</svg>
