<svg viewBox="0 0 20 21" xmlns="http://www.w3.org/2000/svg">
<path d="M10.259 12.557C13.4674 12.557 16.0683 9.95607 16.0683 6.74771C16.0683 3.53936 13.4674 0.938477 10.259 0.938477C7.05068 0.938477 4.4498 3.53936 4.4498 6.74771C4.4498 9.95607 7.05068 12.557 10.259 12.557Z" fill="#A6A6A6"/>
<path d="M10.259 12.557C13.4674 12.557 16.0683 9.95607 16.0683 6.74771C16.0683 3.53936 13.4674 0.938477 10.259 0.938477C7.05068 0.938477 4.4498 3.53936 4.4498 6.74771C4.4498 9.95607 7.05068 12.557 10.259 12.557Z" fill="white" fill-opacity="0.2"/>
<path d="M10.2595 20.9386C15.639 20.9386 20 19.3951 20 17.491C20 15.587 15.639 14.0435 10.2595 14.0435C4.88003 14.0435 0.519073 15.587 0.519073 17.491C0.519073 19.3951 4.88003 20.9386 10.2595 20.9386Z" fill="#A6A6A6"/>
<path d="M10.2595 20.9386C15.639 20.9386 20 19.3951 20 17.491C20 15.587 15.639 14.0435 10.2595 14.0435C4.88003 14.0435 0.519073 15.587 0.519073 17.491C0.519073 19.3951 4.88003 20.9386 10.2595 20.9386Z" fill="#D3D3D3"/>
</svg>
