<svg viewBox="0 0 22 22" xmlns="http://www.w3.org/2000/svg">
<path d="M2.28253 19.5898L7.28253 11.7098C7.42053 11.4958 7.635 11.3425 7.88214 11.2812C8.12929 11.2199 8.39052 11.2552 8.61255 11.3798L12.3026 13.3798C12.4957 13.4843 12.7178 13.5223 12.9347 13.4879C13.1516 13.4536 13.3511 13.3488 13.5025 13.1898L19.5625 6.92981C19.7006 6.78652 19.8784 6.68771 20.073 6.646C20.2676 6.60429 20.4702 6.62158 20.6549 6.69568C20.8396 6.76977 20.998 6.89732 21.1098 7.06195C21.2216 7.22658 21.2817 7.4208 21.2825 7.61981V20.0998C21.2825 20.365 21.1772 20.6194 20.9897 20.8069C20.8021 20.9945 20.5477 21.0998 20.2825 21.0998H3.12253C2.94772 21.0963 2.77692 21.047 2.62711 20.9569C2.47729 20.8668 2.3537 20.7389 2.26871 20.5861C2.18371 20.4333 2.14027 20.2609 2.1427 20.0861C2.14513 19.9113 2.19333 19.7402 2.28253 19.5898ZM18.5725 0.589844V1.58984H20.1325L12.3125 9.67981C12.2362 9.75851 12.1362 9.80997 12.0277 9.82623C11.9193 9.84249 11.8086 9.82268 11.7126 9.76984L8.01254 7.76984C7.67782 7.58021 7.28272 7.52738 6.90994 7.62244C6.53716 7.7175 6.21559 7.95302 6.01254 8.27979L0.852539 16.3498L1.70255 16.8798L6.87253 8.80981C6.94065 8.70327 7.04663 8.62651 7.1691 8.59497C7.29156 8.56343 7.42142 8.57945 7.53253 8.63983L11.2325 10.6398C11.5215 10.7951 11.853 10.8527 12.1774 10.804C12.5019 10.7554 12.8018 10.603 13.0325 10.3698L20.8125 2.31982V3.80981H21.8125V1.11981C21.8125 0.987204 21.7599 0.860004 21.6661 0.766235C21.5723 0.672467 21.4451 0.619812 21.3125 0.619812L18.5725 0.589844Z" />
</svg>
